<svg width="22" height="20" viewBox="0 0 22 20" fill="none" xmlns="http://www.w3.org/2000/svg">
<path fill-rule="evenodd" clip-rule="evenodd" d="M1.70711 17.7782C1.31658 18.1687 1.31658 18.8019 1.70711 19.1924C2.09763 19.5829 2.7308 19.5829 3.12132 19.1924L7.49145 14.8223C7.58747 14.9398 7.68978 15.053 7.79815 15.1613C8.64674 16.009 9.79766 16.4853 10.9977 16.4853C11.592 16.4853 12.1804 16.3684 12.7293 16.1412C13.2783 15.914 13.7771 15.581 14.1973 15.1613C14.6175 14.7415 14.9508 14.2432 15.1782 13.6948C15.4056 13.1464 15.5226 12.5586 15.5226 11.9649C15.5226 11.3713 15.4056 10.7835 15.1782 10.2351C14.9508 9.68664 14.6175 9.18832 14.1973 8.76857C14.0882 8.65952 13.9737 8.55632 13.8544 8.45931L15.8267 6.48705C16.2009 6.70406 16.5618 6.94701 16.9064 7.21494C18.5963 8.52898 19.7991 10.3688 20.3241 12.4429C20.3489 12.5531 20.3955 12.6572 20.4612 12.7491C20.5269 12.8411 20.6103 12.919 20.7065 12.9782C20.8027 13.0375 20.9099 13.077 21.0216 13.0943C21.1333 13.1116 21.2473 13.1064 21.357 13.0791C21.4667 13.0518 21.5698 13.0028 21.6603 12.9351C21.7508 12.8674 21.8268 12.7823 21.8839 12.6848C21.941 12.5873 21.978 12.4794 21.9928 12.3674C22.0075 12.2554 21.9997 12.1417 21.9698 12.0327C21.2505 9.16314 19.4547 6.76642 17.0655 5.24819L20.0919 2.22182C20.4824 1.83129 20.4824 1.19813 20.0919 0.807603C19.7014 0.417078 19.0682 0.417079 18.6777 0.807603L15.1948 4.29049C13.8912 3.76972 12.4731 3.48527 10.9977 3.48527C8.47617 3.48546 6.02692 4.32709 4.03881 5.87656C2.05069 7.42602 0.63764 9.59452 0.0239798 12.0378C-0.0288856 12.2552 0.00643681 12.4847 0.122243 12.6761C0.23805 12.8676 0.424945 13.0056 0.642169 13.0599C0.859393 13.1143 1.08932 13.0806 1.28181 12.9663C1.4743 12.852 1.61374 12.6663 1.6697 12.4497C2.19317 10.3752 3.39459 8.5345 5.08362 7.21924C6.77264 5.90398 8.8527 5.18935 10.9942 5.18857C11.9731 5.18821 12.9392 5.33701 13.8611 5.62416L11.9413 7.54397C11.6319 7.47806 11.3156 7.44459 10.9977 7.44459C9.79766 7.44459 8.64674 7.92084 7.79815 8.76857C6.94957 9.6163 6.47284 10.7661 6.47284 11.9649C6.47284 12.2858 6.50698 12.6031 6.57326 12.912L1.70711 17.7782ZM8.70055 13.6132C8.78943 13.7368 8.88872 13.8538 8.99785 13.9628C9.52825 14.4927 10.2476 14.7904 10.9977 14.7904C11.7478 14.7904 12.4672 14.4927 12.9976 13.9628C13.528 13.4329 13.826 12.7143 13.826 11.9649C13.826 11.2156 13.528 10.4969 12.9976 9.96706C12.8878 9.85736 12.7699 9.75761 12.6453 9.6684L8.70055 13.6132ZM10.2434 9.24184L8.27114 11.2141C8.40014 10.7467 8.64861 10.3159 8.99785 9.96706C9.3464 9.61885 9.77657 9.37092 10.2434 9.24184Z" fill="#3548F5"/>
</svg>
